<?xml version="1.0" encoding="utf-8" standalone="no"?>
<!DOCTYPE svg PUBLIC "-//W3C//DTD SVG 1.1//EN"
  "http://www.w3.org/Graphics/SVG/1.1/DTD/svg11.dtd">
<svg xmlns:xlink="http://www.w3.org/1999/xlink" width="542.247422pt" height="540.239609pt" viewBox="0 0 542.247422 540.239609" xmlns="http://www.w3.org/2000/svg" version="1.1">
 <metadata>
  <rdf:RDF xmlns:dc="http://purl.org/dc/elements/1.1/" xmlns:cc="http://creativecommons.org/ns#" xmlns:rdf="http://www.w3.org/1999/02/22-rdf-syntax-ns#">
   <cc:Work>
    <dc:type rdf:resource="http://purl.org/dc/dcmitype/StillImage"/>
    <dc:date>2026-08-15T10:38:26.092416</dc:date>
    <dc:format>image/svg+xml</dc:format>
    <dc:creator>
     <cc:Agent>
      <dc:title>Matplotlib v3.10.6, https://matplotlib.org/</dc:title>
     </cc:Agent>
    </dc:creator>
   </cc:Work>
  </rdf:RDF>
 </metadata>
 <defs>
  <style type="text/css">*{stroke-linejoin: round; stroke-linecap: butt}</style>
 </defs>
 <g id="figure_1">
  <g id="patch_1">
   <path d="M 0 540.239609 
L 542.247422 540.239609 
L 542.247422 0 
L 0 0 
L 0 540.239609 
z
" style="fill: none"/>
  </g>
  <g id="axes_1">
   <g id="patch_2">
    <path d="M 35.667422 506.58 
L 535.047422 506.58 
L 535.047422 7.2 
L 35.667422 7.2 
L 35.667422 506.58 
z
" style="fill: none"/>
   </g>
   <g id="FillBetweenPolyCollection_1">
    <defs>
     <path id="me4a214d848" d="M 35.667422 -533.039609 
L 35.667422 -33.659609 
L 535.047422 -533.039609 
L 535.047422 -533.039609 
L 535.047422 -533.039609 
L 35.667422 -533.039609 
z
"/>
    </defs>
    <g clip-path="url(#p85279d5464)">
     <use xlink:href="#me4a214d848" x="0" y="540.239609" style="fill: #78766f; fill-opacity: 0.07"/>
    </g>
   </g>
   <g id="matplotlib.axis_1">
    <g id="xtick_1">
     <g id="line2d_1">
      <path d="M 35.667422 506.58 
L 35.667422 7.2 
" clip-path="url(#p85279d5464)" style="fill: none; stroke: #dcdbd5; stroke-width: 0.6; stroke-linecap: square"/>
     </g>
     <g id="line2d_2"/>
     <g id="text_1">
      <text style="font-size: 10px; font-family: 'Helvetica Neue', 'Helvetica', 'Arial', 'DejaVu Sans', sans-serif; text-anchor: middle; fill: #52514e" x="35.667422" y="517.220625" transform="rotate(-0 35.667422 517.220625)">0</text>
     </g>
    </g>
    <g id="xtick_2">
     <g id="line2d_3">
      <path d="M 110.081226 506.58 
L 110.081226 7.2 
" clip-path="url(#p85279d5464)" style="fill: none; stroke: #dcdbd5; stroke-width: 0.6; stroke-linecap: square"/>
     </g>
     <g id="line2d_4"/>
     <g id="text_2">
      <text style="font-size: 10px; font-family: 'Helvetica Neue', 'Helvetica', 'Arial', 'DejaVu Sans', sans-serif; text-anchor: middle; fill: #52514e" x="110.081226" y="517.220625" transform="rotate(-0 110.081226 517.220625)">5</text>
     </g>
    </g>
    <g id="xtick_3">
     <g id="line2d_5">
      <path d="M 184.49503 506.58 
L 184.49503 7.2 
" clip-path="url(#p85279d5464)" style="fill: none; stroke: #dcdbd5; stroke-width: 0.6; stroke-linecap: square"/>
     </g>
     <g id="line2d_6"/>
     <g id="text_3">
      <text style="font-size: 10px; font-family: 'Helvetica Neue', 'Helvetica', 'Arial', 'DejaVu Sans', sans-serif; text-anchor: middle; fill: #52514e" x="184.49503" y="517.220625" transform="rotate(-0 184.49503 517.220625)">10</text>
     </g>
    </g>
    <g id="xtick_4">
     <g id="line2d_7">
      <path d="M 258.908835 506.58 
L 258.908835 7.2 
" clip-path="url(#p85279d5464)" style="fill: none; stroke: #dcdbd5; stroke-width: 0.6; stroke-linecap: square"/>
     </g>
     <g id="line2d_8"/>
     <g id="text_4">
      <text style="font-size: 10px; font-family: 'Helvetica Neue', 'Helvetica', 'Arial', 'DejaVu Sans', sans-serif; text-anchor: middle; fill: #52514e" x="258.908835" y="517.220625" transform="rotate(-0 258.908835 517.220625)">15</text>
     </g>
    </g>
    <g id="xtick_5">
     <g id="line2d_9">
      <path d="M 333.322639 506.58 
L 333.322639 7.2 
" clip-path="url(#p85279d5464)" style="fill: none; stroke: #dcdbd5; stroke-width: 0.6; stroke-linecap: square"/>
     </g>
     <g id="line2d_10"/>
     <g id="text_5">
      <text style="font-size: 10px; font-family: 'Helvetica Neue', 'Helvetica', 'Arial', 'DejaVu Sans', sans-serif; text-anchor: middle; fill: #52514e" x="333.322639" y="517.220625" transform="rotate(-0 333.322639 517.220625)">20</text>
     </g>
    </g>
    <g id="xtick_6">
     <g id="line2d_11">
      <path d="M 407.736443 506.58 
L 407.736443 7.2 
" clip-path="url(#p85279d5464)" style="fill: none; stroke: #dcdbd5; stroke-width: 0.6; stroke-linecap: square"/>
     </g>
     <g id="line2d_12"/>
     <g id="text_6">
      <text style="font-size: 10px; font-family: 'Helvetica Neue', 'Helvetica', 'Arial', 'DejaVu Sans', sans-serif; text-anchor: middle; fill: #52514e" x="407.736443" y="517.220625" transform="rotate(-0 407.736443 517.220625)">25</text>
     </g>
    </g>
    <g id="xtick_7">
     <g id="line2d_13">
      <path d="M 482.150247 506.58 
L 482.150247 7.2 
" clip-path="url(#p85279d5464)" style="fill: none; stroke: #dcdbd5; stroke-width: 0.6; stroke-linecap: square"/>
     </g>
     <g id="line2d_14"/>
     <g id="text_7">
      <text style="font-size: 10px; font-family: 'Helvetica Neue', 'Helvetica', 'Arial', 'DejaVu Sans', sans-serif; text-anchor: middle; fill: #52514e" x="482.150247" y="517.220625" transform="rotate(-0 482.150247 517.220625)">30</text>
     </g>
    </g>
    <g id="text_8">
     <text style="font-size: 10.5px; font-family: 'Helvetica Neue', 'Helvetica', 'Arial', 'DejaVu Sans', sans-serif; text-anchor: middle; fill: #52514e" x="285.357422" y="530.865781" transform="rotate(-0 285.357422 530.865781)">preference shift on REAL outcomes  (‖Δ utility‖)</text>
    </g>
   </g>
   <g id="matplotlib.axis_2">
    <g id="ytick_1">
     <g id="line2d_15">
      <path d="M 35.667422 506.58 
L 535.047422 506.58 
" clip-path="url(#p85279d5464)" style="fill: none; stroke: #dcdbd5; stroke-width: 0.6; stroke-linecap: square"/>
     </g>
     <g id="line2d_16"/>
     <g id="text_9">
      <text style="font-size: 10px; font-family: 'Helvetica Neue', 'Helvetica', 'Arial', 'DejaVu Sans', sans-serif; text-anchor: end; fill: #52514e" x="32.167422" y="510.150312" transform="rotate(-0 32.167422 510.150312)">0</text>
     </g>
    </g>
    <g id="ytick_2">
     <g id="line2d_17">
      <path d="M 35.667422 432.166196 
L 535.047422 432.166196 
" clip-path="url(#p85279d5464)" style="fill: none; stroke: #dcdbd5; stroke-width: 0.6; stroke-linecap: square"/>
     </g>
     <g id="line2d_18"/>
     <g id="text_10">
      <text style="font-size: 10px; font-family: 'Helvetica Neue', 'Helvetica', 'Arial', 'DejaVu Sans', sans-serif; text-anchor: end; fill: #52514e" x="32.167422" y="435.736508" transform="rotate(-0 32.167422 435.736508)">5</text>
     </g>
    </g>
    <g id="ytick_3">
     <g id="line2d_19">
      <path d="M 35.667422 357.752391 
L 535.047422 357.752391 
" clip-path="url(#p85279d5464)" style="fill: none; stroke: #dcdbd5; stroke-width: 0.6; stroke-linecap: square"/>
     </g>
     <g id="line2d_20"/>
     <g id="text_11">
      <text style="font-size: 10px; font-family: 'Helvetica Neue', 'Helvetica', 'Arial', 'DejaVu Sans', sans-serif; text-anchor: end; fill: #52514e" x="32.167422" y="361.322704" transform="rotate(-0 32.167422 361.322704)">10</text>
     </g>
    </g>
    <g id="ytick_4">
     <g id="line2d_21">
      <path d="M 35.667422 283.338587 
L 535.047422 283.338587 
" clip-path="url(#p85279d5464)" style="fill: none; stroke: #dcdbd5; stroke-width: 0.6; stroke-linecap: square"/>
     </g>
     <g id="line2d_22"/>
     <g id="text_12">
      <text style="font-size: 10px; font-family: 'Helvetica Neue', 'Helvetica', 'Arial', 'DejaVu Sans', sans-serif; text-anchor: end; fill: #52514e" x="32.167422" y="286.9089" transform="rotate(-0 32.167422 286.9089)">15</text>
     </g>
    </g>
    <g id="ytick_5">
     <g id="line2d_23">
      <path d="M 35.667422 208.924783 
L 535.047422 208.924783 
" clip-path="url(#p85279d5464)" style="fill: none; stroke: #dcdbd5; stroke-width: 0.6; stroke-linecap: square"/>
     </g>
     <g id="line2d_24"/>
     <g id="text_13">
      <text style="font-size: 10px; font-family: 'Helvetica Neue', 'Helvetica', 'Arial', 'DejaVu Sans', sans-serif; text-anchor: end; fill: #52514e" x="32.167422" y="212.495095" transform="rotate(-0 32.167422 212.495095)">20</text>
     </g>
    </g>
    <g id="ytick_6">
     <g id="line2d_25">
      <path d="M 35.667422 134.510979 
L 535.047422 134.510979 
" clip-path="url(#p85279d5464)" style="fill: none; stroke: #dcdbd5; stroke-width: 0.6; stroke-linecap: square"/>
     </g>
     <g id="line2d_26"/>
     <g id="text_14">
      <text style="font-size: 10px; font-family: 'Helvetica Neue', 'Helvetica', 'Arial', 'DejaVu Sans', sans-serif; text-anchor: end; fill: #52514e" x="32.167422" y="138.081291" transform="rotate(-0 32.167422 138.081291)">25</text>
     </g>
    </g>
    <g id="ytick_7">
     <g id="line2d_27">
      <path d="M 35.667422 60.097174 
L 535.047422 60.097174 
" clip-path="url(#p85279d5464)" style="fill: none; stroke: #dcdbd5; stroke-width: 0.6; stroke-linecap: square"/>
     </g>
     <g id="line2d_28"/>
     <g id="text_15">
      <text style="font-size: 10px; font-family: 'Helvetica Neue', 'Helvetica', 'Arial', 'DejaVu Sans', sans-serif; text-anchor: end; fill: #52514e" x="32.167422" y="63.667487" transform="rotate(-0 32.167422 63.667487)">30</text>
     </g>
    </g>
    <g id="text_16">
     <text style="font-size: 10.5px; font-family: 'Helvetica Neue', 'Helvetica', 'Arial', 'DejaVu Sans', sans-serif; text-anchor: middle; fill: #52514e" x="14.874844" y="256.89" transform="rotate(-90 14.874844 256.89)">preference shift on INVENTED outcomes  (‖Δ utility‖)</text>
    </g>
   </g>
   <g id="line2d_29">
    <path d="M 35.667422 506.58 
L 535.047422 7.2 
" clip-path="url(#p85279d5464)" style="fill: none; stroke-dasharray: 4.8,4.8; stroke-dashoffset: 0; stroke: #78766f; stroke-width: 1.2"/>
   </g>
   <g id="line2d_30">
    <path d="M 54.090033 495.299204 
L 52.428026 495.499931 
" clip-path="url(#p85279d5464)" style="fill: none; stroke: #1baf7a; stroke-opacity: 0.5; stroke-width: 1.4; stroke-linecap: square"/>
   </g>
   <g id="line2d_31">
    <path d="M 52.676646 499.280581 
L 48.629579 500.600464 
" clip-path="url(#p85279d5464)" style="fill: none; stroke: #1baf7a; stroke-opacity: 0.5; stroke-width: 1.4; stroke-linecap: square"/>
   </g>
   <g id="line2d_32">
    <path d="M 124.094112 480.968879 
L 101.566681 477.882306 
" clip-path="url(#p85279d5464)" style="fill: none; stroke: #2a78d6; stroke-opacity: 0.5; stroke-width: 1.4; stroke-linecap: square"/>
   </g>
   <g id="line2d_33">
    <path d="M 167.482199 458.033417 
L 147.748182 466.03651 
" clip-path="url(#p85279d5464)" style="fill: none; stroke: #2a78d6; stroke-opacity: 0.5; stroke-width: 1.4; stroke-linecap: square"/>
   </g>
   <g id="line2d_34">
    <path d="M 265.766847 440.407346 
L 259.899273 437.994928 
" clip-path="url(#p85279d5464)" style="fill: none; stroke: #2a78d6; stroke-opacity: 0.5; stroke-width: 1.4; stroke-linecap: square"/>
   </g>
   <g id="line2d_35">
    <path d="M 317.94649 458.426342 
L 277.229867 458.175344 
" clip-path="url(#p85279d5464)" style="fill: none; stroke: #2a78d6; stroke-opacity: 0.5; stroke-width: 1.4; stroke-linecap: square"/>
   </g>
   <g id="line2d_36">
    <path d="M 375.720625 403.565388 
L 380.99187 454.22545 
" clip-path="url(#p85279d5464)" style="fill: none; stroke: #eb6834; stroke-opacity: 0.5; stroke-width: 1.4; stroke-linecap: square"/>
   </g>
   <g id="line2d_37">
    <path d="M 458.870812 351.461312 
L 386.904886 414.475738 
" clip-path="url(#p85279d5464)" style="fill: none; stroke: #eb6834; stroke-opacity: 0.5; stroke-width: 1.4; stroke-linecap: square"/>
   </g>
   <g id="line2d_38">
    <path d="M 441.981032 257.830625 
L 410.062492 330.222858 
" clip-path="url(#p85279d5464)" style="fill: none; stroke: #e87ba4; stroke-opacity: 0.5; stroke-width: 1.4; stroke-linecap: square"/>
   </g>
   <g id="line2d_39">
    <path d="M 272.009699 113.590042 
L 262.61422 223.360906 
" clip-path="url(#p85279d5464)" style="fill: none; stroke: #e87ba4; stroke-opacity: 0.5; stroke-width: 1.4; stroke-linecap: square"/>
   </g>
   <g id="patch_3">
    <path d="M 35.667422 506.58 
L 35.667422 7.2 
" style="fill: none; stroke: #dcdbd5; stroke-linejoin: miter; stroke-linecap: square"/>
   </g>
   <g id="patch_4">
    <path d="M 35.667422 506.58 
L 535.047422 506.58 
" style="fill: none; stroke: #dcdbd5; stroke-linejoin: miter; stroke-linecap: square"/>
   </g>
   <g id="text_17">
    <text style="font-size: 9px; font-family: 'Helvetica Neue', 'Helvetica', 'Arial', 'DejaVu Sans', sans-serif; fill: #78766f" transform="translate(320.706984 157.860975)">the null</text>
    <text style="font-size: 9px; font-family: 'Helvetica Neue', 'Helvetica', 'Arial', 'DejaVu Sans', sans-serif; fill: #78766f" transform="translate(284.535422 169.2741)">persona moves gibberish</text>
    <text style="font-size: 9px; font-family: 'Helvetica Neue', 'Helvetica', 'Arial', 'DejaVu Sans', sans-serif; fill: #78766f" transform="translate(288.452531 180.795506)">as far as real outcomes</text>
   </g>
   <g id="text_18">
    <text style="font-size: 9px; font-family: 'Helvetica Neue', 'Helvetica', 'Arial', 'DejaVu Sans', sans-serif; fill: #52514e" transform="translate(366.137662 417.592716)">below the line:</text>
    <text style="font-size: 9px; font-family: 'Helvetica Neue', 'Helvetica', 'Arial', 'DejaVu Sans', sans-serif; fill: #52514e" transform="translate(357.129225 429.005841)">some of the shift is</text>
    <text style="font-size: 9px; font-family: 'Helvetica Neue', 'Helvetica', 'Arial', 'DejaVu Sans', sans-serif; fill: #52514e" transform="translate(354.788522 440.418966)">about the outcomes</text>
   </g>
   <g id="PathCollection_1">
    <defs>
     <path id="mcc8f8fbaac" d="M 0 4.873397 
C 1.29244 4.873397 2.532119 4.359905 3.446012 3.446012 
C 4.359905 2.532119 4.873397 1.29244 4.873397 0 
C 4.873397 -1.29244 4.359905 -2.532119 3.446012 -3.446012 
C 2.532119 -4.359905 1.29244 -4.873397 0 -4.873397 
C -1.29244 -4.873397 -2.532119 -4.359905 -3.446012 -3.446012 
C -4.359905 -2.532119 -4.873397 -1.29244 -4.873397 0 
C -4.873397 1.29244 -4.359905 2.532119 -3.446012 3.446012 
C -2.532119 4.359905 -1.29244 4.873397 0 4.873397 
z
" style="stroke: #ffffff; stroke-opacity: 0.95; stroke-width: 1.5"/>
    </defs>
    <g clip-path="url(#p85279d5464)">
     <use xlink:href="#mcc8f8fbaac" x="54.090033" y="495.299204" style="fill: #1baf7a; fill-opacity: 0.95; stroke: #ffffff; stroke-opacity: 0.95; stroke-width: 1.5"/>
    </g>
   </g>
   <g id="PathCollection_2">
    <defs>
     <path id="m00730b2875" d="M -4.873397 4.873397 
L 4.873397 4.873397 
L 4.873397 -4.873397 
L -4.873397 -4.873397 
z
" style="stroke: #ffffff; stroke-opacity: 0.95; stroke-width: 1.5"/>
    </defs>
    <g clip-path="url(#p85279d5464)">
     <use xlink:href="#m00730b2875" x="52.428026" y="495.499931" style="fill: #1baf7a; fill-opacity: 0.95; stroke: #ffffff; stroke-opacity: 0.95; stroke-width: 1.5"/>
    </g>
   </g>
   <g id="PathCollection_3">
    <defs>
     <path id="mb19f453901" d="M 0 4.873397 
C 1.29244 4.873397 2.532119 4.359905 3.446012 3.446012 
C 4.359905 2.532119 4.873397 1.29244 4.873397 0 
C 4.873397 -1.29244 4.359905 -2.532119 3.446012 -3.446012 
C 2.532119 -4.359905 1.29244 -4.873397 0 -4.873397 
C -1.29244 -4.873397 -2.532119 -4.359905 -3.446012 -3.446012 
C -4.359905 -2.532119 -4.873397 -1.29244 -4.873397 0 
C -4.873397 1.29244 -4.359905 2.532119 -3.446012 3.446012 
C -2.532119 4.359905 -1.29244 4.873397 0 4.873397 
z
" style="stroke: #ffffff; stroke-opacity: 0.55; stroke-width: 1.5"/>
    </defs>
    <g clip-path="url(#p85279d5464)">
     <use xlink:href="#mb19f453901" x="52.676646" y="499.280581" style="fill: #1baf7a; fill-opacity: 0.55; stroke: #ffffff; stroke-opacity: 0.55; stroke-width: 1.5"/>
    </g>
   </g>
   <g id="PathCollection_4">
    <defs>
     <path id="m9d80fe3230" d="M -4.873397 4.873397 
L 4.873397 4.873397 
L 4.873397 -4.873397 
L -4.873397 -4.873397 
z
" style="stroke: #ffffff; stroke-opacity: 0.55; stroke-width: 1.5"/>
    </defs>
    <g clip-path="url(#p85279d5464)">
     <use xlink:href="#m9d80fe3230" x="48.629579" y="500.600464" style="fill: #1baf7a; fill-opacity: 0.55; stroke: #ffffff; stroke-opacity: 0.55; stroke-width: 1.5"/>
    </g>
   </g>
   <g id="PathCollection_5">
    <defs>
     <path id="m5d9de7299d" d="M 0 4.873397 
C 1.29244 4.873397 2.532119 4.359905 3.446012 3.446012 
C 4.359905 2.532119 4.873397 1.29244 4.873397 0 
C 4.873397 -1.29244 4.359905 -2.532119 3.446012 -3.446012 
C 2.532119 -4.359905 1.29244 -4.873397 0 -4.873397 
C -1.29244 -4.873397 -2.532119 -4.359905 -3.446012 -3.446012 
C -4.359905 -2.532119 -4.873397 -1.29244 -4.873397 0 
C -4.873397 1.29244 -4.359905 2.532119 -3.446012 3.446012 
C -2.532119 4.359905 -1.29244 4.873397 0 4.873397 
z
" style="stroke: #ffffff; stroke-opacity: 0.95; stroke-width: 1.5"/>
    </defs>
    <g clip-path="url(#p85279d5464)">
     <use xlink:href="#m5d9de7299d" x="124.094112" y="480.968879" style="fill: #2a78d6; fill-opacity: 0.95; stroke: #ffffff; stroke-opacity: 0.95; stroke-width: 1.5"/>
    </g>
   </g>
   <g id="PathCollection_6">
    <defs>
     <path id="maed5129843" d="M -4.873397 4.873397 
L 4.873397 4.873397 
L 4.873397 -4.873397 
L -4.873397 -4.873397 
z
" style="stroke: #ffffff; stroke-opacity: 0.95; stroke-width: 1.5"/>
    </defs>
    <g clip-path="url(#p85279d5464)">
     <use xlink:href="#maed5129843" x="101.566681" y="477.882306" style="fill: #2a78d6; fill-opacity: 0.95; stroke: #ffffff; stroke-opacity: 0.95; stroke-width: 1.5"/>
    </g>
   </g>
   <g id="PathCollection_7">
    <defs>
     <path id="ma2993608cb" d="M 0 4.873397 
C 1.29244 4.873397 2.532119 4.359905 3.446012 3.446012 
C 4.359905 2.532119 4.873397 1.29244 4.873397 0 
C 4.873397 -1.29244 4.359905 -2.532119 3.446012 -3.446012 
C 2.532119 -4.359905 1.29244 -4.873397 0 -4.873397 
C -1.29244 -4.873397 -2.532119 -4.359905 -3.446012 -3.446012 
C -4.359905 -2.532119 -4.873397 -1.29244 -4.873397 0 
C -4.873397 1.29244 -4.359905 2.532119 -3.446012 3.446012 
C -2.532119 4.359905 -1.29244 4.873397 0 4.873397 
z
" style="stroke: #ffffff; stroke-opacity: 0.55; stroke-width: 1.5"/>
    </defs>
    <g clip-path="url(#p85279d5464)">
     <use xlink:href="#ma2993608cb" x="167.482199" y="458.033417" style="fill: #2a78d6; fill-opacity: 0.55; stroke: #ffffff; stroke-opacity: 0.55; stroke-width: 1.5"/>
    </g>
   </g>
   <g id="PathCollection_8">
    <defs>
     <path id="md539f4b803" d="M -4.873397 4.873397 
L 4.873397 4.873397 
L 4.873397 -4.873397 
L -4.873397 -4.873397 
z
" style="stroke: #ffffff; stroke-opacity: 0.55; stroke-width: 1.5"/>
    </defs>
    <g clip-path="url(#p85279d5464)">
     <use xlink:href="#md539f4b803" x="147.748182" y="466.03651" style="fill: #2a78d6; fill-opacity: 0.55; stroke: #ffffff; stroke-opacity: 0.55; stroke-width: 1.5"/>
    </g>
   </g>
   <g id="PathCollection_9">
    <g clip-path="url(#p85279d5464)">
     <use xlink:href="#m5d9de7299d" x="265.766847" y="440.407346" style="fill: #2a78d6; fill-opacity: 0.95; stroke: #ffffff; stroke-opacity: 0.95; stroke-width: 1.5"/>
    </g>
   </g>
   <g id="PathCollection_10">
    <g clip-path="url(#p85279d5464)">
     <use xlink:href="#maed5129843" x="259.899273" y="437.994928" style="fill: #2a78d6; fill-opacity: 0.95; stroke: #ffffff; stroke-opacity: 0.95; stroke-width: 1.5"/>
    </g>
   </g>
   <g id="PathCollection_11">
    <g clip-path="url(#p85279d5464)">
     <use xlink:href="#ma2993608cb" x="317.94649" y="458.426342" style="fill: #2a78d6; fill-opacity: 0.55; stroke: #ffffff; stroke-opacity: 0.55; stroke-width: 1.5"/>
    </g>
   </g>
   <g id="PathCollection_12">
    <g clip-path="url(#p85279d5464)">
     <use xlink:href="#md539f4b803" x="277.229867" y="458.175344" style="fill: #2a78d6; fill-opacity: 0.55; stroke: #ffffff; stroke-opacity: 0.55; stroke-width: 1.5"/>
    </g>
   </g>
   <g id="PathCollection_13">
    <defs>
     <path id="m645983fb23" d="M 0 4.873397 
C 1.29244 4.873397 2.532119 4.359905 3.446012 3.446012 
C 4.359905 2.532119 4.873397 1.29244 4.873397 0 
C 4.873397 -1.29244 4.359905 -2.532119 3.446012 -3.446012 
C 2.532119 -4.359905 1.29244 -4.873397 0 -4.873397 
C -1.29244 -4.873397 -2.532119 -4.359905 -3.446012 -3.446012 
C -4.359905 -2.532119 -4.873397 -1.29244 -4.873397 0 
C -4.873397 1.29244 -4.359905 2.532119 -3.446012 3.446012 
C -2.532119 4.359905 -1.29244 4.873397 0 4.873397 
z
" style="stroke: #ffffff; stroke-opacity: 0.95; stroke-width: 1.5"/>
    </defs>
    <g clip-path="url(#p85279d5464)">
     <use xlink:href="#m645983fb23" x="375.720625" y="403.565388" style="fill: #eb6834; fill-opacity: 0.95; stroke: #ffffff; stroke-opacity: 0.95; stroke-width: 1.5"/>
    </g>
   </g>
   <g id="PathCollection_14">
    <defs>
     <path id="m52c3f1d8c0" d="M -4.873397 4.873397 
L 4.873397 4.873397 
L 4.873397 -4.873397 
L -4.873397 -4.873397 
z
" style="stroke: #ffffff; stroke-opacity: 0.95; stroke-width: 1.5"/>
    </defs>
    <g clip-path="url(#p85279d5464)">
     <use xlink:href="#m52c3f1d8c0" x="380.99187" y="454.22545" style="fill: #eb6834; fill-opacity: 0.95; stroke: #ffffff; stroke-opacity: 0.95; stroke-width: 1.5"/>
    </g>
   </g>
   <g id="PathCollection_15">
    <defs>
     <path id="me621166bbf" d="M 0 4.873397 
C 1.29244 4.873397 2.532119 4.359905 3.446012 3.446012 
C 4.359905 2.532119 4.873397 1.29244 4.873397 0 
C 4.873397 -1.29244 4.359905 -2.532119 3.446012 -3.446012 
C 2.532119 -4.359905 1.29244 -4.873397 0 -4.873397 
C -1.29244 -4.873397 -2.532119 -4.359905 -3.446012 -3.446012 
C -4.359905 -2.532119 -4.873397 -1.29244 -4.873397 0 
C -4.873397 1.29244 -4.359905 2.532119 -3.446012 3.446012 
C -2.532119 4.359905 -1.29244 4.873397 0 4.873397 
z
" style="stroke: #ffffff; stroke-opacity: 0.55; stroke-width: 1.5"/>
    </defs>
    <g clip-path="url(#p85279d5464)">
     <use xlink:href="#me621166bbf" x="458.870812" y="351.461312" style="fill: #eb6834; fill-opacity: 0.55; stroke: #ffffff; stroke-opacity: 0.55; stroke-width: 1.5"/>
    </g>
   </g>
   <g id="PathCollection_16">
    <defs>
     <path id="mc85660fc7c" d="M -4.873397 4.873397 
L 4.873397 4.873397 
L 4.873397 -4.873397 
L -4.873397 -4.873397 
z
" style="stroke: #ffffff; stroke-opacity: 0.55; stroke-width: 1.5"/>
    </defs>
    <g clip-path="url(#p85279d5464)">
     <use xlink:href="#mc85660fc7c" x="386.904886" y="414.475738" style="fill: #eb6834; fill-opacity: 0.55; stroke: #ffffff; stroke-opacity: 0.55; stroke-width: 1.5"/>
    </g>
   </g>
   <g id="PathCollection_17">
    <defs>
     <path id="m67df345142" d="M 0 4.873397 
C 1.29244 4.873397 2.532119 4.359905 3.446012 3.446012 
C 4.359905 2.532119 4.873397 1.29244 4.873397 0 
C 4.873397 -1.29244 4.359905 -2.532119 3.446012 -3.446012 
C 2.532119 -4.359905 1.29244 -4.873397 0 -4.873397 
C -1.29244 -4.873397 -2.532119 -4.359905 -3.446012 -3.446012 
C -4.359905 -2.532119 -4.873397 -1.29244 -4.873397 0 
C -4.873397 1.29244 -4.359905 2.532119 -3.446012 3.446012 
C -2.532119 4.359905 -1.29244 4.873397 0 4.873397 
z
" style="stroke: #ffffff; stroke-opacity: 0.95; stroke-width: 1.5"/>
    </defs>
    <g clip-path="url(#p85279d5464)">
     <use xlink:href="#m67df345142" x="441.981032" y="257.830625" style="fill: #e87ba4; fill-opacity: 0.95; stroke: #ffffff; stroke-opacity: 0.95; stroke-width: 1.5"/>
    </g>
   </g>
   <g id="PathCollection_18">
    <defs>
     <path id="mf97a7b3df3" d="M -4.873397 4.873397 
L 4.873397 4.873397 
L 4.873397 -4.873397 
L -4.873397 -4.873397 
z
" style="stroke: #ffffff; stroke-opacity: 0.95; stroke-width: 1.5"/>
    </defs>
    <g clip-path="url(#p85279d5464)">
     <use xlink:href="#mf97a7b3df3" x="410.062492" y="330.222858" style="fill: #e87ba4; fill-opacity: 0.95; stroke: #ffffff; stroke-opacity: 0.95; stroke-width: 1.5"/>
    </g>
   </g>
   <g id="PathCollection_19">
    <defs>
     <path id="mde7b87a64e" d="M 0 4.873397 
C 1.29244 4.873397 2.532119 4.359905 3.446012 3.446012 
C 4.359905 2.532119 4.873397 1.29244 4.873397 0 
C 4.873397 -1.29244 4.359905 -2.532119 3.446012 -3.446012 
C 2.532119 -4.359905 1.29244 -4.873397 0 -4.873397 
C -1.29244 -4.873397 -2.532119 -4.359905 -3.446012 -3.446012 
C -4.359905 -2.532119 -4.873397 -1.29244 -4.873397 0 
C -4.873397 1.29244 -4.359905 2.532119 -3.446012 3.446012 
C -2.532119 4.359905 -1.29244 4.873397 0 4.873397 
z
" style="stroke: #ffffff; stroke-opacity: 0.55; stroke-width: 1.5"/>
    </defs>
    <g clip-path="url(#p85279d5464)">
     <use xlink:href="#mde7b87a64e" x="272.009699" y="113.590042" style="fill: #e87ba4; fill-opacity: 0.55; stroke: #ffffff; stroke-opacity: 0.55; stroke-width: 1.5"/>
    </g>
   </g>
   <g id="PathCollection_20">
    <defs>
     <path id="m90017b7e3e" d="M -4.873397 4.873397 
L 4.873397 4.873397 
L 4.873397 -4.873397 
L -4.873397 -4.873397 
z
" style="stroke: #ffffff; stroke-opacity: 0.55; stroke-width: 1.5"/>
    </defs>
    <g clip-path="url(#p85279d5464)">
     <use xlink:href="#m90017b7e3e" x="262.61422" y="223.360906" style="fill: #e87ba4; fill-opacity: 0.55; stroke: #ffffff; stroke-opacity: 0.55; stroke-width: 1.5"/>
    </g>
   </g>
   <g id="legend_1">
    <g id="line2d_40">
     <defs>
      <path id="m2007e9f03e" d="M 0 4 
C 1.060812 4 2.078319 3.578535 2.828427 2.828427 
C 3.578535 2.078319 4 1.060812 4 0 
C 4 -1.060812 3.578535 -2.078319 2.828427 -2.828427 
C 2.078319 -3.578535 1.060812 -4 0 -4 
C -1.060812 -4 -2.078319 -3.578535 -2.828427 -2.828427 
C -3.578535 -2.078319 -4 -1.060812 -4 0 
C -4 1.060812 -3.578535 2.078319 -2.828427 2.828427 
C -2.078319 3.578535 -1.060812 4 0 4 
z
" style="stroke: #ffffff"/>
     </defs>
     <g>
      <use xlink:href="#m2007e9f03e" x="53.717422" y="19.208594" style="fill: #2a78d6; stroke: #ffffff"/>
     </g>
    </g>
    <g id="text_19">
     <text style="font-size: 9.5px; font-family: 'Helvetica Neue', 'Helvetica', 'Arial', 'DejaVu Sans', sans-serif; text-anchor: start; fill: #52514e" x="66.542422" y="22.533594" transform="rotate(-0 66.542422 22.533594)">qwen</text>
    </g>
    <g id="line2d_41">
     <defs>
      <path id="m506cc79e49" d="M 0 4 
C 1.060812 4 2.078319 3.578535 2.828427 2.828427 
C 3.578535 2.078319 4 1.060812 4 0 
C 4 -1.060812 3.578535 -2.078319 2.828427 -2.828427 
C 2.078319 -3.578535 1.060812 -4 0 -4 
C -1.060812 -4 -2.078319 -3.578535 -2.828427 -2.828427 
C -3.578535 -2.078319 -4 -1.060812 -4 0 
C -4 1.060812 -3.578535 2.078319 -2.828427 2.828427 
C -2.078319 3.578535 -1.060812 4 0 4 
z
" style="stroke: #ffffff"/>
     </defs>
     <g>
      <use xlink:href="#m506cc79e49" x="53.717422" y="32.613984" style="fill: #eb6834; stroke: #ffffff"/>
     </g>
    </g>
    <g id="text_20">
     <text style="font-size: 9.5px; font-family: 'Helvetica Neue', 'Helvetica', 'Arial', 'DejaVu Sans', sans-serif; text-anchor: start; fill: #52514e" x="66.542422" y="35.938984" transform="rotate(-0 66.542422 35.938984)">gemma</text>
    </g>
    <g id="line2d_42">
     <defs>
      <path id="m28c1977b75" d="M 0 4 
C 1.060812 4 2.078319 3.578535 2.828427 2.828427 
C 3.578535 2.078319 4 1.060812 4 0 
C 4 -1.060812 3.578535 -2.078319 2.828427 -2.828427 
C 2.078319 -3.578535 1.060812 -4 0 -4 
C -1.060812 -4 -2.078319 -3.578535 -2.828427 -2.828427 
C -3.578535 -2.078319 -4 -1.060812 -4 0 
C -4 1.060812 -3.578535 2.078319 -2.828427 2.828427 
C -2.078319 3.578535 -1.060812 4 0 4 
z
" style="stroke: #ffffff"/>
     </defs>
     <g>
      <use xlink:href="#m28c1977b75" x="53.717422" y="46.133672" style="fill: #1baf7a; stroke: #ffffff"/>
     </g>
    </g>
    <g id="text_21">
     <text style="font-size: 9.5px; font-family: 'Helvetica Neue', 'Helvetica', 'Arial', 'DejaVu Sans', sans-serif; text-anchor: start; fill: #52514e" x="66.542422" y="49.458672" transform="rotate(-0 66.542422 49.458672)">liquid</text>
    </g>
    <g id="line2d_43">
     <defs>
      <path id="me14dca740c" d="M 0 4 
C 1.060812 4 2.078319 3.578535 2.828427 2.828427 
C 3.578535 2.078319 4 1.060812 4 0 
C 4 -1.060812 3.578535 -2.078319 2.828427 -2.828427 
C 2.078319 -3.578535 1.060812 -4 0 -4 
C -1.060812 -4 -2.078319 -3.578535 -2.828427 -2.828427 
C -3.578535 -2.078319 -4 -1.060812 -4 0 
C -4 1.060812 -3.578535 2.078319 -2.828427 2.828427 
C -2.078319 3.578535 -1.060812 4 0 4 
z
" style="stroke: #ffffff"/>
     </defs>
     <g>
      <use xlink:href="#me14dca740c" x="126.906016" y="19.208594" style="fill: #e87ba4; stroke: #ffffff"/>
     </g>
    </g>
    <g id="text_22">
     <text style="font-size: 9.5px; font-family: 'Helvetica Neue', 'Helvetica', 'Arial', 'DejaVu Sans', sans-serif; text-anchor: start; fill: #52514e" x="139.731016" y="22.533594" transform="rotate(-0 139.731016 22.533594)">granite</text>
    </g>
    <g id="line2d_44">
     <defs>
      <path id="m8a1fdde64c" d="M 0 4 
C 1.060812 4 2.078319 3.578535 2.828427 2.828427 
C 3.578535 2.078319 4 1.060812 4 0 
C 4 -1.060812 3.578535 -2.078319 2.828427 -2.828427 
C 2.078319 -3.578535 1.060812 -4 0 -4 
C -1.060812 -4 -2.078319 -3.578535 -2.828427 -2.828427 
C -3.578535 -2.078319 -4 -1.060812 -4 0 
C -4 1.060812 -3.578535 2.078319 -2.828427 2.828427 
C -2.078319 3.578535 -1.060812 4 0 4 
z
" style="stroke: #78766f"/>
     </defs>
     <g>
      <use xlink:href="#m8a1fdde64c" x="126.906016" y="32.888594" style="fill: #78766f; stroke: #78766f"/>
     </g>
    </g>
    <g id="text_23">
     <text style="font-size: 9.5px; font-family: 'Helvetica Neue', 'Helvetica', 'Arial', 'DejaVu Sans', sans-serif; text-anchor: start; fill: #52514e" x="139.731016" y="36.213594" transform="rotate(-0 139.731016 36.213594)">D1 (user turn)</text>
    </g>
    <g id="line2d_45">
     <defs>
      <path id="mb2e052f3be" d="M -4 4 
L 4 4 
L 4 -4 
L -4 -4 
z
" style="stroke: #78766f; stroke-linejoin: miter"/>
     </defs>
     <g>
      <use xlink:href="#mb2e052f3be" x="126.906016" y="46.454297" style="fill: #78766f; stroke: #78766f; stroke-linejoin: miter"/>
     </g>
    </g>
    <g id="text_24">
     <text style="font-size: 9.5px; font-family: 'Helvetica Neue', 'Helvetica', 'Arial', 'DejaVu Sans', sans-serif; text-anchor: start; fill: #52514e" x="139.731016" y="49.779297" transform="rotate(-0 139.731016 49.779297)">D2 (system prompt)</text>
    </g>
   </g>
  </g>
 </g>
 <defs>
  <clipPath id="p85279d5464">
   <rect x="35.667422" y="7.2" width="499.38" height="499.38"/>
  </clipPath>
 </defs>
</svg>
